<?xml version="1.0" standalone="no"?>
<!DOCTYPE svg PUBLIC "-//W3C//DTD SVG 20010904//EN"
 "http://www.w3.org/TR/2001/REC-SVG-20010904/DTD/svg10.dtd">
<svg version="1.0" xmlns="http://www.w3.org/2000/svg"
 width="300.000000pt" height="74.000000pt" viewBox="0 0 300.000000 74.000000"
 preserveAspectRatio="xMidYMid meet">
<metadata>
Created by potrace 1.10, written by Peter Selinger 2001-2011
</metadata>
<g transform="translate(0.000000,74.000000) scale(0.100000,-0.100000)"
fill="#000000" stroke="none">
<path d="M383 527 c-51 -27 -66 -83 -37 -139 13 -25 14 -32 2 -39 -9 -6 -5 -9
15 -9 35 0 34 -10 -6 -35 -41 -26 -45 -48 -13 -80 25 -25 74 -36 60 -13 -5 7
-3 8 5 3 8 -4 25 6 46 29 24 27 28 36 16 36 -9 0 -27 10 -41 21 -24 20 -24 21
-3 16 12 -3 21 -2 20 2 -1 4 12 20 29 34 32 27 50 35 39 18 -3 -6 0 -13 7 -18
15 -10 17 -65 3 -75 -6 -5 -6 -8 2 -8 6 0 28 -16 49 -35 44 -41 81 -45 112
-12 26 28 27 47 7 88 -9 16 -13 34 -10 39 3 5 0 12 -6 15 -5 4 -9 22 -7 40 5
62 -48 91 -117 65 -23 -9 -29 -6 -55 24 -32 36 -84 50 -117 33z m95 -47 c16
-27 31 -36 57 -30 10 2 79 3 103 1 8 -1 12 -10 10 -23 -4 -31 -52 -37 -69 -10
-11 17 -15 18 -26 6 -8 -8 -28 -14 -44 -14 -22 0 -30 -5 -35 -25 -5 -22 -11
-25 -53 -25 -45 0 -46 1 -59 40 -16 52 -16 53 9 84 30 39 84 37 107 -4z m102
-124 c0 -31 10 -56 21 -56 5 0 9 7 9 15 0 8 4 15 8 15 5 0 8 10 8 21 -1 25 12
33 33 20 12 -8 12 -13 3 -24 -10 -11 -7 -21 12 -50 23 -34 23 -36 7 -51 -10
-9 -32 -16 -50 -16 -27 0 -31 3 -26 19 4 14 1 19 -12 17 -19 -1 -37 30 -48 82
-6 28 -4 32 14 32 16 0 21 -6 21 -24z m-145 -96 c0 -22 -5 -25 -43 -28 -44 -3
-61 11 -48 44 4 11 17 14 48 12 38 -3 43 -6 43 -28z"/>
<path d="M2412 511 c-15 -16 -34 -38 -42 -50 -14 -20 -18 -21 -42 -9 -16 7
-28 16 -28 21 0 10 -64 9 -94 -3 -17 -6 -26 -6 -26 0 0 17 -46 11 -72 -9 -24
-19 -25 -19 -54 0 -31 20 -108 26 -119 9 -4 -6 -11 -8 -16 -5 -5 4 -23 -7 -40
-24 l-30 -31 -31 35 c-32 37 -70 45 -122 25 -16 -6 -27 -6 -31 0 -8 13 -81 13
-106 0 -13 -8 -19 -7 -19 0 0 14 -60 3 -81 -16 -20 -18 -26 -18 -56 6 -29 23
-103 28 -103 8 0 -9 -3 -9 -9 1 -8 12 -14 12 -38 -4 -15 -9 -35 -27 -44 -38
-17 -21 -17 -20 -52 16 -27 29 -42 37 -70 37 -20 0 -38 -4 -42 -9 -3 -6 -18
-6 -38 0 -40 11 -87 12 -87 0 0 -4 -18 -3 -40 2 -34 10 -43 8 -67 -9 -26 -20
-27 -23 -27 -124 -1 -73 3 -107 12 -117 21 -21 60 -26 93 -13 23 10 36 10 55
1 30 -13 84 -15 84 -2 0 16 36 19 55 5 23 -17 75 -18 75 -2 0 6 3 8 7 5 3 -4
14 0 24 9 15 14 20 13 50 -5 47 -29 116 -28 161 3 l34 23 28 -23 c26 -23 94
-35 81 -14 -3 5 0 7 8 4 8 -3 18 -1 22 5 4 8 13 6 28 -4 28 -19 77 -19 105 1
20 14 24 14 44 0 30 -22 60 -20 91 4 24 19 28 20 50 5 13 -8 27 -12 30 -8 4 3
7 1 7 -5 0 -18 86 -15 121 4 28 14 33 14 54 0 31 -20 89 -21 105 -1 11 13 16
13 47 0 48 -20 75 -19 106 5 22 17 29 18 51 9 14 -7 26 -16 26 -22 0 -5 18 -6
43 -3 49 8 69 8 157 0 60 -5 67 -3 92 21 37 34 43 66 23 109 -11 23 -14 43 -9
58 18 53 -9 84 -74 87 -27 1 -63 -6 -86 -16 l-39 -17 -39 47 c-22 26 -47 47
-55 47 -8 0 -27 -13 -41 -29z m64 -25 c3 -13 16 -28 30 -35 26 -12 32 -31 10
-31 -26 0 -46 -30 -46 -71 0 -53 15 -81 43 -77 32 4 28 -24 -4 -36 -38 -13
-78 0 -89 30 -6 14 -10 51 -10 83 0 40 -5 63 -15 71 -14 11 -13 14 5 27 11 8
20 20 20 27 0 16 20 36 37 36 7 0 15 -11 19 -24z m-1599 -47 c8 -8 17 -8 31 0
27 14 75 14 90 -1 9 -9 18 -9 37 0 74 34 115 2 115 -88 0 -35 6 -64 16 -79 21
-29 7 -43 -37 -39 l-34 3 -5 85 c-4 71 -8 85 -23 88 -10 2 -24 -2 -32 -8 -20
-16 -20 -109 0 -136 19 -28 11 -34 -41 -34 -45 0 -64 14 -45 33 6 6 11 37 11
68 0 64 -18 91 -48 72 -14 -8 -17 -27 -17 -89 l0 -79 -35 -3 c-51 -3 -67 10
-46 39 20 29 21 79 2 124 -13 31 -13 36 2 45 23 13 46 12 59 -1z m518 -11 c27
-24 42 -80 31 -121 -3 -13 -18 -36 -32 -50 -49 -49 -141 -33 -173 30 -24 48
-7 114 39 150 27 22 106 16 135 -9z m150 12 c4 -7 12 -7 25 0 24 13 66 13 89
0 12 -6 30 -5 53 2 76 23 108 -11 108 -117 0 -39 4 -54 16 -59 30 -12 -5 -37
-45 -34 l-36 3 3 66 c4 78 -9 112 -41 107 -20 -3 -22 -10 -25 -67 -2 -36 2
-69 7 -74 25 -25 11 -37 -39 -37 -55 0 -58 5 -39 58 14 40 0 116 -23 120 -34
7 -50 -27 -46 -102 l3 -71 -38 -3 c-41 -4 -59 17 -37 43 12 15 10 100 -5 142
-5 16 -2 22 12 26 32 8 52 7 58 -3z m500 -15 c26 -26 33 -72 13 -80 -7 -3 -33
-7 -58 -9 -25 -2 -48 -4 -52 -5 -5 -1 -8 -10 -8 -21 0 -28 35 -43 86 -35 49 7
57 -4 22 -29 -36 -25 -110 -21 -141 8 -47 44 -48 126 -2 172 34 34 106 34 140
-1z m142 14 c8 -8 17 -8 31 0 30 16 73 13 94 -6 14 -12 18 -31 18 -81 0 -46 5
-71 16 -83 23 -25 9 -39 -40 -39 l-43 0 1 88 1 87 -30 0 c-40 0 -53 -36 -38
-108 6 -28 9 -55 6 -59 -7 -13 -91 -9 -99 4 -4 6 0 16 9 23 22 16 23 121 2
149 -12 16 -12 22 -2 28 18 11 61 10 74 -3z m541 -21 c4 -32 -5 -34 -46 -11
-28 16 -62 13 -62 -6 0 -6 19 -20 43 -32 58 -29 77 -48 77 -76 0 -40 -33 -63
-93 -63 -58 0 -77 12 -77 47 0 28 21 30 45 3 24 -27 65 -27 65 0 0 13 -12 25
-37 35 -52 22 -73 44 -73 76 0 41 33 60 100 57 52 -3 55 -5 58 -30z m-184 -53
c4 -14 11 -23 16 -20 14 9 12 -8 -4 -30 -20 -28 -46 -12 -46 28 0 51 23 66 34
22z m-444 -49 c0 -18 -17 -29 -30 -21 -8 5 -7 11 1 21 15 18 29 18 29 0z"/>
<path d="M1280 394 c-30 -79 20 -170 68 -122 15 15 16 102 2 129 -16 29 -58
25 -70 -7z"/>
<path d="M1940 400 c-15 -28 -5 -40 36 -40 33 0 35 2 32 28 -4 36 -51 44 -68
12z"/>
</g>
</svg>
