<svg version="1.1" id="Layer_1" xmlns="http://www.w3.org/2000/svg" xmlns:xlink="http://www.w3.org/1999/xlink" x="0px" y="0px"
	 width="100%" viewBox="0 0 472 116" enable-background="new 0 0 472 116" xml:space="preserve">
<path fill="#242229" opacity="1.000000" stroke="none" 
	d="
M450.000092,117.000000 
	C300.063629,117.000000 150.627182,117.000000 1.095373,117.000000 
	C1.095373,78.413567 1.095373,39.826813 1.095373,1.120032 
	C158.333267,1.120032 315.666626,1.120032 472.995117,1.120032 
	C472.995117,39.706032 472.995117,78.353020 472.992676,117.000000 
	C465.493561,117.000000 457.996826,117.000000 450.000092,117.000000 
M77.105644,45.228271 
	C76.104805,43.384415 75.103973,41.540554 73.700829,39.110027 
	C70.534569,36.662571 67.323250,36.105167 63.281017,38.934219 
	C56.558987,41.508934 55.004112,47.041256 59.166134,54.893295 
	C59.599640,56.789196 60.033146,58.685097 60.551041,60.950069 
	C63.069820,60.950069 65.587723,61.383812 67.872177,60.838871 
	C70.647705,60.176788 75.094955,61.204689 74.872993,55.503208 
	C74.872993,55.503208 74.865433,55.041546 75.235420,54.377075 
	C76.910461,53.599823 78.520805,52.586376 80.276978,52.105328 
	C82.454254,51.508930 84.752342,51.353573 87.609497,50.912319 
	C88.398087,50.262154 89.186668,49.611984 90.329765,49.571003 
	C92.139275,53.609749 95.713913,54.407066 99.417145,53.712025 
	C100.822472,53.448265 102.746864,51.194843 102.782700,49.805664 
	C102.814774,48.562649 100.551598,46.171585 99.342506,46.197777 
	C96.219444,46.265434 93.119270,47.389145 89.400528,47.891563 
	C88.588951,47.722157 87.777367,47.552750 86.084854,47.331875 
	C83.190369,47.175671 80.295876,47.019466 77.217888,46.407814 
	C77.217888,46.407814 76.977280,45.980694 77.105644,45.228271 
M106.223015,71.013664 
	C104.516075,68.603539 102.809135,66.193413 101.049850,63.188786 
	C100.450157,62.463882 99.850456,61.738983 99.250763,61.014084 
	C99.041458,61.172878 98.832161,61.331673 98.622864,61.490467 
	C99.041214,62.296993 99.459564,63.103519 99.347221,64.333176 
	C97.893883,66.352913 96.440552,68.372658 94.578545,70.960342 
	C93.450447,68.545349 92.598129,66.720741 91.842247,64.241135 
	C91.777504,62.953400 91.951988,61.588619 91.570129,60.403019 
	C91.279861,59.501751 90.399078,58.390846 89.568550,58.169117 
	C88.624702,57.917130 87.151283,58.252472 86.479134,58.913330 
	C86.088638,59.297264 86.746056,60.845676 87.065475,61.826614 
	C87.419212,62.912903 87.925308,63.949585 88.143173,65.771614 
	C88.932198,70.882317 89.193832,76.406265 96.395317,76.122002 
	C96.395317,77.828804 96.395317,79.237831 96.395317,81.618881 
	C99.831108,81.046013 102.930199,80.529282 106.667747,79.767448 
	C111.246552,75.239883 111.233307,75.015457 106.223015,71.013664 
M127.907692,77.492104 
	C130.630905,78.469673 133.315994,80.126122 136.085388,80.281654 
	C141.627579,80.592911 142.131119,79.400116 141.536041,73.783043 
	C141.011658,68.832909 140.460403,63.732346 141.157333,58.875622 
	C141.470459,56.693604 144.558640,54.482365 146.898438,53.271412 
	C147.628342,52.893654 151.295532,55.622517 151.448441,57.146889 
	C152.083618,63.479340 153.616684,69.987694 150.241486,76.189949 
	C149.752625,77.088287 150.724274,79.961800 151.125458,79.983620 
	C155.722763,80.233681 160.340515,80.108353 165.440369,80.080399 
	C161.620728,70.264954 161.098358,66.582893 161.861862,58.876659 
	C162.189743,55.567379 163.261856,52.968548 167.070587,52.757000 
	C171.248444,52.524952 172.747253,55.282314 172.797745,58.764767 
	C172.877167,64.242287 172.438080,69.725655 172.413223,75.207436 
	C172.406433,76.704338 172.612885,78.737289 173.561661,79.596802 
	C175.834686,81.655975 183.757843,80.130402 185.302643,78.505409 
	C184.264053,74.077896 183.167923,70.481171 182.629166,66.802811 
	C182.100021,63.190033 182.338226,59.468643 181.875076,55.841473 
	C181.287491,51.240097 179.231094,47.194382 174.219788,46.612789 
	C171.253601,46.268551 167.973785,47.198784 165.063126,48.211548 
	C162.231354,49.196854 160.061462,49.033825 157.115021,48.070305 
	C153.451508,46.872299 149.061066,46.985584 145.185410,47.669956 
	C142.619598,48.123032 140.899673,48.879814 138.013474,47.614349 
	C135.521881,46.521908 131.778244,48.285110 128.588104,48.785885 
	C128.997070,50.745441 129.437531,52.699036 129.809387,54.665611 
	C131.229065,62.173439 132.875916,69.706284 127.907692,77.492104 
M241.185318,46.900673 
	C240.353195,46.930126 239.511124,46.887405 238.690521,47.000469 
	C232.195450,47.895340 232.433868,48.444744 234.198105,54.671898 
	C236.115234,61.438656 237.663391,68.675888 233.142944,75.289658 
	C231.548096,77.623085 232.294540,78.951881 234.644058,79.837097 
	C242.509415,82.800499 246.643158,79.828018 245.853271,71.788460 
	C245.674133,69.965096 245.362640,68.146172 245.318146,66.320183 
	C245.253494,63.665352 244.564713,60.598305 245.639526,58.459579 
	C246.786026,56.178200 249.674438,54.772209 251.802399,52.984066 
	C253.344421,54.839764 255.931198,56.541470 256.231689,58.580158 
	C257.117188,64.587769 258.145660,70.797737 254.607300,76.570168 
	C254.171097,77.281776 255.204010,79.959122 255.654236,79.984489 
	C260.261108,80.244049 264.888306,80.143417 269.509796,80.143417 
	C269.660492,79.623314 269.811218,79.103203 269.961914,78.583099 
	C265.084564,72.618179 265.883118,65.724930 266.359528,58.947689 
	C266.597351,55.564404 267.893341,52.701633 272.063385,52.743439 
	C275.993469,52.782825 277.253418,55.387730 277.281464,58.693901 
	C277.327942,64.168983 276.985016,69.648094 277.065338,75.121696 
	C277.088867,76.725632 277.712067,79.521904 278.535187,79.711601 
	C282.815979,80.698158 287.293335,81.250420 291.687317,77.490936 
	C286.112305,74.468430 287.160522,69.553902 287.033661,65.001068 
	C286.991943,63.502411 287.010437,62.000786 286.923370,60.505058 
	C286.846130,59.178188 286.729004,57.846325 286.512207,56.536068 
	C284.991058,47.341530 280.009033,44.307350 271.219086,47.618813 
	C267.472412,49.030300 264.493164,49.338581 260.506592,47.487583 
	C257.491669,46.087723 252.873398,46.604679 249.554840,47.841438 
	C246.441498,49.001720 244.352310,48.981770 241.185318,46.900673 
M362.843719,80.521263 
	C365.161987,80.369804 367.507660,80.388268 369.790863,80.019669 
	C372.131470,79.641800 373.389771,77.928383 371.147034,76.353477 
	C367.764709,73.978355 368.116119,70.803581 367.985718,67.493011 
	C367.809357,63.015068 367.599548,58.525459 367.088043,54.077194 
	C366.529846,49.222557 363.245026,46.560265 358.671692,46.421043 
	C355.678223,46.329906 352.659180,47.797951 349.614075,48.367210 
	C348.179077,48.635475 346.257568,49.024654 345.241028,48.341099 
	C340.630096,45.240479 336.635193,46.805458 332.386292,48.903599 
	C332.705231,49.850124 332.791779,50.343899 333.022614,50.757061 
	C337.739594,59.200279 338.648315,67.622787 333.356842,76.267723 
	C332.944244,76.941856 334.234772,79.719109 335.093414,79.911186 
	C337.634491,80.479660 340.357483,80.207451 343.006409,80.327789 
	C347.366394,80.525879 348.710876,79.356514 347.473938,74.471680 
	C346.157593,69.273239 346.176971,63.623348 346.368256,58.197193 
	C346.490601,54.725647 349.301086,52.270302 352.820557,52.622505 
	C354.630066,52.803593 357.563568,54.971691 357.689178,56.438812 
	C358.194061,62.335018 358.791687,68.544319 357.447906,74.183441 
	C356.214600,79.358940 357.609039,80.468529 362.843719,80.521263 
M191.858429,67.580269 
	C194.164551,77.208771 199.453949,81.176971 209.813858,81.050751 
	C218.099365,80.949814 224.601273,74.962456 225.916779,66.222206 
	C227.250778,57.359058 222.621429,49.273880 214.798828,46.804661 
	C201.472809,42.598270 190.735245,51.916733 191.858429,67.580269 
M318.308472,64.019020 
	C321.345276,63.259518 325.637451,64.459435 326.547974,60.084438 
	C327.465027,55.678082 325.421661,51.925659 321.994629,49.129951 
	C314.836487,43.290558 302.205353,45.957577 297.691895,54.171215 
	C294.175385,60.570503 294.987732,70.666382 299.440002,75.897064 
	C303.687195,80.886810 312.663757,82.825813 319.732422,79.781067 
	C321.919952,78.838806 323.526794,76.548416 325.399506,74.875275 
	C323.209412,74.785667 320.952545,74.314529 318.842804,74.683853 
	C314.080078,75.517593 309.778290,75.231064 306.841766,70.882141 
	C304.489136,67.397949 305.784973,64.710861 309.913605,64.296936 
	C312.391144,64.048546 314.901794,64.130989 318.308472,64.019020 
M412.280243,65.243874 
	C414.668823,66.405251 417.057159,67.567085 419.446014,68.727875 
	C421.869507,69.905479 424.287781,71.795494 422.473663,74.360001 
	C421.473267,75.774185 418.185303,76.111382 415.996002,75.960014 
	C414.442017,75.852570 413.009644,74.102913 411.506531,73.111176 
	C409.959290,72.090347 408.392090,71.099770 406.732849,70.031036 
	C403.933807,76.773354 406.036865,80.507004 412.388519,80.959625 
	C415.365784,81.171783 418.376770,81.136520 421.360535,80.982697 
	C426.656189,80.709679 431.163788,77.145615 431.845581,72.641838 
	C432.630585,67.456558 430.053375,64.103004 425.560303,61.933437 
	C422.423218,60.418613 419.121490,59.142254 416.254425,57.220520 
	C415.088287,56.438873 414.263489,54.140575 414.471466,52.704372 
	C414.591034,51.878685 417.367004,50.565979 418.459106,50.931381 
	C420.848389,51.730774 423.002930,53.352455 425.108643,54.842697 
	C426.973328,56.162350 428.646515,57.112633 429.799927,54.257488 
	C431.179321,50.842907 429.342651,47.331791 425.702545,46.740849 
	C422.767578,46.264378 419.714600,45.864986 416.784973,46.153267 
	C412.026550,46.621498 407.371674,48.048649 405.968842,53.404419 
	C404.599884,58.630871 407.092957,62.381405 412.280243,65.243874 
M389.956146,39.605572 
	C388.010773,35.750320 385.664124,36.331520 383.596344,39.312794 
	C381.224213,42.732872 379.194885,46.390743 377.678528,48.865154 
	C378.773407,53.467033 379.978790,57.308022 380.539154,61.240913 
	C381.075836,65.007706 380.724609,68.894966 381.159302,72.683876 
	C381.696472,77.365936 384.560883,80.495079 389.235260,80.778198 
	C393.440918,81.032928 397.874451,80.549309 400.411804,74.660118 
	C390.733124,75.928474 390.185944,70.206665 389.868652,63.353088 
	C389.548950,56.447372 391.445435,51.539856 397.912201,49.812366 
	C395.051147,46.336605 392.585693,43.341419 389.956146,39.605572 
M68.864861,73.550522 
	C65.146873,73.021446 61.369976,71.840614 57.729565,72.169685 
	C54.821758,72.432526 53.706093,77.940384 56.362347,79.288429 
	C59.285423,80.771881 63.232414,80.996445 66.554283,80.520309 
	C67.703514,80.355576 68.316132,76.447083 68.864861,73.550522 
z"/>
<path fill="#A1A9A9" opacity="1.000000" stroke="none" 
	d="
M127.940826,77.090790 
	C132.875916,69.706284 131.229065,62.173439 129.809387,54.665611 
	C129.437531,52.699036 128.997070,50.745441 128.588104,48.785885 
	C131.778244,48.285110 135.521881,46.521908 138.013474,47.614349 
	C140.899673,48.879814 142.619598,48.123032 145.185410,47.669956 
	C149.061066,46.985584 153.451508,46.872299 157.115021,48.070305 
	C160.061462,49.033825 162.231354,49.196854 165.063126,48.211548 
	C167.973785,47.198784 171.253601,46.268551 174.219788,46.612789 
	C179.231094,47.194382 181.287491,51.240097 181.875076,55.841473 
	C182.338226,59.468643 182.100021,63.190033 182.629166,66.802811 
	C183.167923,70.481171 184.264053,74.077896 185.302643,78.505409 
	C183.757843,80.130402 175.834686,81.655975 173.561661,79.596802 
	C172.612885,78.737289 172.406433,76.704338 172.413223,75.207436 
	C172.438080,69.725655 172.877167,64.242287 172.797745,58.764767 
	C172.747253,55.282314 171.248444,52.524952 167.070587,52.757000 
	C163.261856,52.968548 162.189743,55.567379 161.861862,58.876659 
	C161.098358,66.582893 161.620728,70.264954 165.440369,80.080399 
	C160.340515,80.108353 155.722763,80.233681 151.125458,79.983620 
	C150.724274,79.961800 149.752625,77.088287 150.241486,76.189949 
	C153.616684,69.987694 152.083618,63.479340 151.448441,57.146889 
	C151.295532,55.622517 147.628342,52.893654 146.898438,53.271412 
	C144.558640,54.482365 141.470459,56.693604 141.157333,58.875622 
	C140.460403,63.732346 141.011658,68.832909 141.536041,73.783043 
	C142.131119,79.400116 141.627579,80.592911 136.085388,80.281654 
	C133.315994,80.126122 130.630905,78.469673 127.940826,77.090790 
z"/>
<path fill="#A2AAAA" opacity="1.000000" stroke="none" 
	d="
M241.595978,46.954544 
	C244.352310,48.981770 246.441498,49.001720 249.554840,47.841438 
	C252.873398,46.604679 257.491669,46.087723 260.506592,47.487583 
	C264.493164,49.338581 267.472412,49.030300 271.219086,47.618813 
	C280.009033,44.307350 284.991058,47.341530 286.512207,56.536068 
	C286.729004,57.846325 286.846130,59.178188 286.923370,60.505058 
	C287.010437,62.000786 286.991943,63.502411 287.033661,65.001068 
	C287.160522,69.553902 286.112305,74.468430 291.687317,77.490936 
	C287.293335,81.250420 282.815979,80.698158 278.535187,79.711601 
	C277.712067,79.521904 277.088867,76.725632 277.065338,75.121696 
	C276.985016,69.648094 277.327942,64.168983 277.281464,58.693901 
	C277.253418,55.387730 275.993469,52.782825 272.063385,52.743439 
	C267.893341,52.701633 266.597351,55.564404 266.359528,58.947689 
	C265.883118,65.724930 265.084564,72.618179 269.961914,78.583099 
	C269.811218,79.103203 269.660492,79.623314 269.509796,80.143417 
	C264.888306,80.143417 260.261108,80.244049 255.654236,79.984489 
	C255.204010,79.959122 254.171097,77.281776 254.607300,76.570168 
	C258.145660,70.797737 257.117188,64.587769 256.231689,58.580158 
	C255.931198,56.541470 253.344421,54.839764 251.802399,52.984062 
	C249.674438,54.772209 246.786026,56.178200 245.639526,58.459579 
	C244.564713,60.598305 245.253494,63.665352 245.318146,66.320183 
	C245.362640,68.146172 245.674133,69.965096 245.853271,71.788460 
	C246.643158,79.828018 242.509415,82.800499 234.644058,79.837097 
	C232.294540,78.951881 231.548096,77.623085 233.142944,75.289658 
	C237.663391,68.675888 236.115234,61.438656 234.198105,54.671898 
	C232.433868,48.444744 232.195450,47.895340 238.690521,47.000469 
	C239.511124,46.887405 240.353195,46.930126 241.595978,46.954544 
z"/>
<path fill="#A1AAA9" opacity="1.000000" stroke="none" 
	d="
M362.434357,80.512764 
	C357.609039,80.468529 356.214600,79.358940 357.447906,74.183441 
	C358.791687,68.544319 358.194061,62.335018 357.689178,56.438812 
	C357.563568,54.971691 354.630066,52.803593 352.820557,52.622505 
	C349.301086,52.270302 346.490601,54.725647 346.368256,58.197193 
	C346.176971,63.623348 346.157593,69.273239 347.473938,74.471680 
	C348.710876,79.356514 347.366394,80.525879 343.006409,80.327789 
	C340.357483,80.207451 337.634491,80.479660 335.093414,79.911186 
	C334.234772,79.719109 332.944244,76.941856 333.356842,76.267723 
	C338.648315,67.622787 337.739594,59.200279 333.022614,50.757061 
	C332.791779,50.343899 332.705231,49.850124 332.386292,48.903599 
	C336.635193,46.805458 340.630096,45.240479 345.241028,48.341099 
	C346.257568,49.024654 348.179077,48.635475 349.614075,48.367210 
	C352.659180,47.797951 355.678223,46.329906 358.671692,46.421043 
	C363.245026,46.560265 366.529846,49.222557 367.088043,54.077194 
	C367.599548,58.525459 367.809357,63.015068 367.985718,67.493011 
	C368.116119,70.803581 367.764709,73.978355 371.147034,76.353477 
	C373.389771,77.928383 372.131470,79.641800 369.790863,80.019669 
	C367.507660,80.388268 365.161987,80.369804 362.434357,80.512764 
z"/>
<path fill="#A1AAA9" opacity="1.000000" stroke="none" 
	d="
M191.821869,67.178467 
	C190.735245,51.916733 201.472809,42.598270 214.798828,46.804661 
	C222.621429,49.273880 227.250778,57.359058 225.916779,66.222206 
	C224.601273,74.962456 218.099365,80.949814 209.813858,81.050751 
	C199.453949,81.176971 194.164551,77.208771 191.821869,67.178467 
M202.219009,54.994003 
	C200.071381,61.035763 199.885941,67.132637 203.084137,72.747375 
	C204.118637,74.563560 206.930786,76.495811 208.813843,76.386055 
	C210.738251,76.273880 213.396500,74.086021 214.198624,72.165710 
	C216.502625,66.649796 216.325500,60.761040 213.932114,55.251476 
	C211.417282,49.462383 206.442871,49.146488 202.219009,54.994003 
z"/>
<path fill="#A1A9A8" opacity="1.000000" stroke="none" 
	d="
M317.853027,64.041878 
	C314.901794,64.130989 312.391144,64.048546 309.913605,64.296936 
	C305.784973,64.710861 304.489136,67.397949 306.841766,70.882141 
	C309.778290,75.231064 314.080078,75.517593 318.842804,74.683853 
	C320.952545,74.314529 323.209412,74.785667 325.399506,74.875275 
	C323.526794,76.548416 321.919952,78.838806 319.732422,79.781067 
	C312.663757,82.825813 303.687195,80.886810 299.440002,75.897064 
	C294.987732,70.666382 294.175385,60.570503 297.691895,54.171215 
	C302.205353,45.957577 314.836487,43.290558 321.994629,49.129951 
	C325.421661,51.925659 327.465027,55.678082 326.547974,60.084438 
	C325.637451,64.459435 321.345276,63.259518 317.853027,64.041878 
M317.366394,59.098602 
	C318.807892,55.968567 317.741730,53.279797 315.019257,51.894974 
	C313.377045,51.059647 310.256805,50.838604 309.102661,51.840820 
	C307.073578,53.602791 306.042755,56.514423 304.593872,58.944599 
	C305.035736,59.375145 305.477600,59.805695 305.919464,60.236244 
	C309.523254,60.049747 313.127045,59.863255 317.366394,59.098602 
z"/>
<path fill="#A1A9A9" opacity="1.000000" stroke="none" 
	d="
M411.947021,65.090881 
	C407.092957,62.381405 404.599884,58.630871 405.968842,53.404419 
	C407.371674,48.048649 412.026550,46.621498 416.784973,46.153267 
	C419.714600,45.864986 422.767578,46.264378 425.702545,46.740849 
	C429.342651,47.331791 431.179321,50.842907 429.799927,54.257488 
	C428.646515,57.112633 426.973328,56.162350 425.108643,54.842697 
	C423.002930,53.352455 420.848389,51.730774 418.459106,50.931381 
	C417.367004,50.565979 414.591034,51.878685 414.471466,52.704372 
	C414.263489,54.140575 415.088287,56.438873 416.254425,57.220520 
	C419.121490,59.142254 422.423218,60.418613 425.560303,61.933437 
	C430.053375,64.103004 432.630585,67.456558 431.845581,72.641838 
	C431.163788,77.145615 426.656189,80.709679 421.360535,80.982697 
	C418.376770,81.136520 415.365784,81.171783 412.388519,80.959625 
	C406.036865,80.507004 403.933807,76.773354 406.732849,70.031036 
	C408.392090,71.099770 409.959290,72.090347 411.506531,73.111176 
	C413.009644,74.102913 414.442017,75.852570 415.996002,75.960014 
	C418.185303,76.111382 421.473267,75.774185 422.473663,74.360001 
	C424.287781,71.795494 421.869507,69.905479 419.446014,68.727875 
	C417.057159,67.567085 414.668823,66.405251 411.947021,65.090881 
z"/>
<path fill="#A2AAA9" opacity="1.000000" stroke="none" 
	d="
M390.038208,39.975903 
	C392.585693,43.341419 395.051147,46.336605 397.912201,49.812366 
	C391.445435,51.539856 389.548950,56.447372 389.868652,63.353088 
	C390.185944,70.206665 390.733124,75.928474 400.411804,74.660118 
	C397.874451,80.549309 393.440918,81.032928 389.235260,80.778198 
	C384.560883,80.495079 381.696472,77.365936 381.159302,72.683876 
	C380.724609,68.894966 381.075836,65.007706 380.539154,61.240913 
	C379.978790,57.308022 378.773407,53.467033 377.678528,48.865154 
	C379.194885,46.390743 381.224213,42.732872 383.596344,39.312794 
	C385.664124,36.331520 388.010773,35.750320 390.038208,39.975903 
z"/>
<path fill="#61748A" opacity="1.000000" stroke="none" 
	d="
M77.401390,46.863266 
	C80.295876,47.019466 83.190369,47.175671 86.526802,47.719696 
	C86.978584,49.074245 86.988411,50.040974 86.998238,51.007702 
	C84.752342,51.353573 82.454254,51.508930 80.276978,52.105328 
	C78.520805,52.586376 76.910461,53.599823 74.992752,54.809082 
	C74.660393,55.459198 74.634148,55.685020 74.671349,55.918564 
	C75.094955,61.204689 70.647705,60.176788 67.872177,60.838871 
	C65.587723,61.383812 63.069820,60.950069 60.551041,60.950069 
	C60.033146,58.685097 59.599640,56.789196 59.183495,54.156189 
	C60.226097,49.959202 60.047745,45.711609 65.163239,44.894772 
	C67.628273,47.138058 69.780571,48.139774 72.091110,45.099861 
	C73.245102,45.553032 74.128410,45.784992 75.290726,46.169895 
	C76.180283,46.502979 76.790840,46.683125 77.401390,46.863266 
z"/>
<path fill="#869F9D" opacity="1.000000" stroke="none" 
	d="
M91.745811,64.896133 
	C92.598129,66.720741 93.450447,68.545349 94.578545,70.960342 
	C96.440552,68.372658 97.893883,66.352913 99.919174,64.095947 
	C100.694824,63.833569 100.898514,63.808422 101.102203,63.783279 
	C102.809135,66.193413 104.516075,68.603539 106.050003,71.755524 
	C105.927757,75.002441 105.978523,77.507492 106.029289,80.012543 
	C102.930199,80.529282 99.831108,81.046013 96.395317,81.618881 
	C96.395317,79.237831 96.395317,77.828804 96.395317,76.122002 
	C89.193832,76.406265 88.932198,70.882317 88.592239,65.385681 
	C89.942810,64.965210 90.844315,64.930672 91.745811,64.896133 
z"/>
<path fill="#5C6D87" opacity="1.000000" stroke="none" 
	d="
M69.019363,73.899574 
	C68.316132,76.447083 67.703514,80.355576 66.554283,80.520309 
	C63.232414,80.996445 59.285423,80.771881 56.362347,79.288429 
	C53.706093,77.940384 54.821758,72.432526 57.729565,72.169685 
	C61.369976,71.840614 65.146873,73.021446 69.019363,73.899574 
z"/>
<path fill="#849693" opacity="1.000000" stroke="none" 
	d="
M90.009949,48.091087 
	C93.119270,47.389145 96.219444,46.265434 99.342506,46.197777 
	C100.551598,46.171585 102.814774,48.562649 102.782700,49.805664 
	C102.746864,51.194843 100.822472,53.448265 99.417145,53.712025 
	C95.713913,54.407066 92.139275,53.609749 90.189438,49.050037 
	C90.049103,48.529072 90.009949,48.091084 90.009949,48.091087 
z"/>
<path fill="#89A29E" opacity="1.000000" stroke="none" 
	d="
M64.879234,44.742817 
	C60.047745,45.711609 60.226097,49.959202 59.101070,53.790405 
	C55.004112,47.041256 56.558987,41.508934 63.903961,39.105831 
	C66.185059,40.999908 67.748245,42.728500 64.879234,44.742817 
z"/>
<path fill="#7F6F78" opacity="1.000000" stroke="none" 
	d="
M65.163239,44.894772 
	C67.748245,42.728500 66.185059,40.999908 64.279709,39.078495 
	C67.323250,36.105167 70.534569,36.662571 73.619705,39.557961 
	C72.965874,41.630146 72.393158,43.254398 71.820442,44.878651 
	C69.780571,48.139774 67.628273,47.138058 65.163239,44.894772 
z"/>
<path fill="#86636C" opacity="1.000000" stroke="none" 
	d="
M91.794029,64.568634 
	C90.844315,64.930672 89.942810,64.965210 88.703186,65.003815 
	C87.925308,63.949585 87.419212,62.912903 87.065475,61.826614 
	C86.746056,60.845676 86.088638,59.297264 86.479134,58.913330 
	C87.151283,58.252472 88.624702,57.917130 89.568550,58.169117 
	C90.399078,58.390846 91.279861,59.501751 91.570129,60.403019 
	C91.951988,61.588619 91.777504,62.953400 91.794029,64.568634 
z"/>
<path fill="#5D6F81" opacity="1.000000" stroke="none" 
	d="
M106.348518,79.889999 
	C105.978523,77.507492 105.927757,75.002441 106.036270,72.131073 
	C111.233307,75.015457 111.246552,75.239883 106.348518,79.889999 
z"/>
<path fill="#89A29E" opacity="1.000000" stroke="none" 
	d="
M72.091110,45.099861 
	C72.393158,43.254398 72.965874,41.630146 73.820862,39.851295 
	C75.103973,41.540554 76.104805,43.384415 76.713493,45.588226 
	C75.884804,45.971107 75.448265,45.994034 75.011726,46.016953 
	C74.128410,45.784992 73.245102,45.553032 72.091110,45.099861 
z"/>
<path fill="#5C6D86" opacity="1.000000" stroke="none" 
	d="
M89.705238,47.991325 
	C90.009949,48.091084 90.049103,48.529072 90.012177,48.745445 
	C89.186668,49.611984 88.398087,50.262154 87.303864,50.960011 
	C86.988411,50.040974 86.978584,49.074245 86.967270,47.745430 
	C87.777367,47.552750 88.588951,47.722157 89.705238,47.991325 
z"/>
<path fill="#9B6E79" opacity="1.000000" stroke="none" 
	d="
M101.076027,63.486031 
	C100.898514,63.808422 100.694824,63.833569 100.184525,63.884377 
	C99.459564,63.103519 99.041214,62.296993 98.622864,61.490467 
	C98.832161,61.331673 99.041458,61.172878 99.250763,61.014084 
	C99.850456,61.738983 100.450157,62.463882 101.076027,63.486031 
z"/>
<path fill="#5C6D86" opacity="1.000000" stroke="none" 
	d="
M75.290726,46.169899 
	C75.448265,45.994034 75.884804,45.971107 76.649307,45.964439 
	C76.977280,45.980694 77.217888,46.407814 77.309639,46.635540 
	C76.790840,46.683125 76.180283,46.502979 75.290726,46.169899 
z"/>
<path fill="#5C6D86" opacity="1.000000" stroke="none" 
	d="
M74.772171,55.710884 
	C74.634148,55.685020 74.660393,55.459198 74.807755,55.141319 
	C74.865433,55.041546 74.872993,55.503208 74.772171,55.710884 
z"/>
<path fill="#26242B" opacity="1.000000" stroke="none" 
	d="
M202.406693,54.630207 
	C206.442871,49.146488 211.417282,49.462383 213.932114,55.251476 
	C216.325500,60.761040 216.502625,66.649796 214.198624,72.165710 
	C213.396500,74.086021 210.738251,76.273880 208.813843,76.386055 
	C206.930786,76.495811 204.118637,74.563560 203.084137,72.747375 
	C199.885941,67.132637 200.071381,61.035763 202.406693,54.630207 
z"/>
<path fill="#27262D" opacity="1.000000" stroke="none" 
	d="
M317.048615,59.387680 
	C313.127045,59.863255 309.523254,60.049747 305.919464,60.236244 
	C305.477600,59.805695 305.035736,59.375145 304.593872,58.944599 
	C306.042755,56.514423 307.073578,53.602791 309.102661,51.840820 
	C310.256805,50.838604 313.377045,51.059647 315.019257,51.894974 
	C317.741730,53.279797 318.807892,55.968567 317.048615,59.387680 
z"/>
</svg>